<?xml version="1.0" encoding="UTF-8" standalone="no"?>
<svg width="49px" height="75px" viewBox="0 0 49 75" version="1.1" xmlns="http://www.w3.org/2000/svg" xmlns:xlink="http://www.w3.org/1999/xlink" xmlns:sketch="http://www.bohemiancoding.com/sketch/ns">
    <!-- Generator: Sketch 3.0.3 (7891) - http://www.bohemiancoding.com/sketch -->
    <title>handicon_wh</title>
    <desc>Created with Sketch.</desc>
    <defs/>
    <g id="Page-1" stroke="none" stroke-width="1" fill="none" fill-rule="evenodd" sketch:type="MSPage">
        <g id="Index" sketch:type="MSArtboardGroup" transform="translate(-936.000000, -2034.000000)" fill="#FFFFFF">
            <g id="MOBILEAPP" sketch:type="MSLayerGroup" transform="translate(0.000000, 1806.000000)">
                <g id="Group-6" transform="translate(879.000000, 228.000000)" sketch:type="MSShapeGroup">
                    <g id="Group-4" transform="translate(57.000000, 0.000000)">
                        <path d="M32.203,12.698 C31.277,12.698 30.407,12.121 30.082,11.198 C29.599,9.833 28.834,8.623 27.814,7.603 C24.199,3.988 17.915,3.994 14.305,7.6 C13.365,8.54 12.647,9.636 12.166,10.858 C11.712,12.015 10.394,12.578 9.248,12.129 C8.091,11.675 7.522,10.368 7.977,9.211 C8.686,7.412 9.744,5.798 11.123,4.418 C13.777,1.764 17.308,0.302 21.061,0.302 C24.814,0.302 28.341,1.764 30.993,4.418 C32.493,5.915 33.615,7.69 34.324,9.697 C34.737,10.869 34.125,12.155 32.953,12.568 C32.704,12.657 32.452,12.698 32.203,12.698 Z M17.273,46.24 C16.031,46.24 15.023,45.232 15.023,43.99 L15.023,17.948 C15.023,14.298 17.991,11.327 21.641,11.327 C25.294,11.327 28.265,14.298 28.265,17.948 L28.265,39.44 C28.265,40.682 27.257,41.69 26.015,41.69 C24.773,41.69 23.765,40.682 23.765,39.44 L23.765,17.948 C23.765,16.779 22.813,15.827 21.641,15.827 C20.472,15.827 19.523,16.779 19.523,17.948 L19.523,43.99 C19.523,45.232 18.516,46.24 17.273,46.24 Z M35.391,41.69 C34.149,41.69 33.141,40.682 33.141,39.44 L33.141,31.454 C33.141,30.505 32.505,29.664 31.597,29.409 C30.399,29.072 29.701,27.83 30.035,26.635 C30.372,25.44 31.605,24.742 32.809,25.073 C35.654,25.873 37.64,28.495 37.64,31.454 L37.64,39.44 C37.641,40.683 36.633,41.69 35.391,41.69 Z M36.82,73.697 L36.814,73.697 C35.572,73.694 34.57,72.689 34.57,71.45 C34.57,71.151 34.623,64.132 39.099,59.034 C42.913,53.371 43.312,52.744 43.312,47.479 L43.312,33.147 C43.312,31.981 42.36,31.032 41.191,31.032 C39.949,31.032 38.941,30.024 38.941,28.782 C38.941,27.54 39.949,26.532 41.191,26.532 C44.841,26.532 47.812,29.5 47.812,33.147 L47.812,47.479 C47.812,54.156 46.845,55.588 42.782,61.624 C42.723,61.709 42.624,61.844 42.556,61.92 C39.143,65.72 39.07,71.4 39.07,71.456 C39.064,72.695 38.057,73.697 36.82,73.697 Z M18.334,73.1 C17.092,73.1 16.084,72.092 16.084,70.85 C16.084,69.795 16.119,68.814 16.151,67.885 C16.274,64.405 16.35,62.301 14.587,59.922 C12.085,56.541 10.74,55.085 9.316,53.547 C7.998,52.12 6.635,50.647 4.344,47.685 C2.794,45.69 -0.428,41.533 0.289,37.229 C0.679,34.888 2.431,32.893 4.751,32.149 C6.831,31.478 8.911,31.926 10.338,33.341 C10.35,33.344 11.343,34.182 12.562,35.307 C13.476,36.151 13.535,37.572 12.694,38.486 C11.85,39.406 10.426,39.462 9.515,38.618 C8.302,37.499 7.329,36.684 7.315,36.67 C6.861,36.233 6.298,36.383 6.128,36.433 C5.527,36.626 4.862,37.177 4.731,37.968 C4.335,40.332 6.744,43.438 7.901,44.929 C10.072,47.736 11.367,49.136 12.621,50.492 C14.13,52.124 15.557,53.668 18.202,57.245 C20.903,60.89 20.786,64.206 20.648,68.047 C20.616,68.923 20.584,69.852 20.584,70.851 C20.584,72.092 19.576,73.1 18.334,73.1 Z" id="handicon_wh"/>
                    </g>
                </g>
            </g>
        </g>
    </g>
</svg>