<?xml version="1.0" encoding="UTF-8" standalone="no"?>
<svg width="301px" height="630px" viewBox="0 0 301 630" version="1.1" xmlns="http://www.w3.org/2000/svg" xmlns:xlink="http://www.w3.org/1999/xlink" xmlns:sketch="http://www.bohemiancoding.com/sketch/ns">
    <!-- Generator: Sketch 3.0.3 (7891) - http://www.bohemiancoding.com/sketch -->
    <title>iphone_wh</title>
    <desc>Created with Sketch.</desc>
    <defs/>
    <g id="Page-1" stroke="none" stroke-width="1" fill="none" fill-rule="evenodd" sketch:type="MSPage">
        <g id="Index" sketch:type="MSArtboardGroup" transform="translate(-451.000000, -1969.000000)">
            <g id="MOBILEAPP" sketch:type="MSLayerGroup" transform="translate(0.000000, 1806.000000)">
                <g id="Mobilebg" sketch:type="MSShapeGroup">
                    <g id="iphone_wh" transform="translate(451.000000, 163.000000)">
                        <path d="M204.13549,0 L248.254454,0 C249.289745,0 250.129982,0.81020855 250.129982,1.80850123 L250.129982,7.04230378 C250.129982,8.04150071 249.289745,8.85080501 248.254454,8.85080501 L204.13549,8.85080501 C203.099262,8.85080501 202.259963,8.04150071 202.259963,7.04230378 L202.259963,1.80850123 C202.259963,0.81020855 203.099262,0 204.13549,0" id="Fill-1" fill="#FFFFFF"/>
                        <path d="M1.81518347,90.8940966 L8.26271514,90.8940966 C9.26469642,90.8940966 10.0778986,91.7533811 10.0778986,92.8142854 L10.0778986,116.790723 C10.0778986,117.850668 9.26469642,118.710912 8.26271514,118.710912 L1.81518347,118.710912 C0.813202193,118.710912 0,117.850668 0,116.790723 L0,92.8142854 C0,91.7533811 0.813202193,90.8940966 1.81518347,90.8940966" id="Fill-2" fill="#FFFFFF"/>
                        <path d="M1.91886874,197.103757 L6.90025198,197.103757 C7.95946752,197.103757 8.81816128,197.939277 8.81816128,198.970841 L8.81816128,216.731484 C8.81816128,217.762115 7.95946752,218.598569 6.90025198,218.598569 L1.91886874,218.598569 C0.859653194,218.598569 0,217.762115 0,216.731484 L0,198.970841 C0,197.939277 0.859653194,197.103757 1.91886874,197.103757" id="Fill-3" fill="#FFFFFF"/>
                        <path d="M1.86865041,146.527728 L6.94951087,146.527728 C7.9810059,146.527728 8.81816128,147.363248 8.81816128,148.394813 L8.81816128,166.155456 C8.81816128,167.18702 7.9810059,168.02254 6.94951087,168.02254 L1.86865041,168.02254 C0.837155384,168.02254 0,167.18702 0,166.155456 L0,148.394813 C0,147.363248 0.837155384,146.527728 1.86865041,146.527728" id="Fill-4" fill="#FFFFFF"/>
                        <path d="M250.921263,6.17924866 C276.921908,6.17924866 298,27.3038625 298,53.3618938 L298,579.817355 C298,605.875386 276.921908,627 250.921263,627 L54.0794146,627 C28.0787698,627 7.00067766,605.875386 7.00067766,579.817355 L7.00067766,53.3618938 C7.00067766,27.3038625 28.0787698,6.17924866 54.0794146,6.17924866 L250.921263,6.17924866 Z" id="Fill-5" stroke="#FFFFFF" stroke-width="5"/>
                        <path d="M113.448031,56.7552773 C115.1879,56.7552773 116.597825,58.1704216 116.597825,59.9158267 C116.597825,61.6621365 115.1879,63.0772809 113.448031,63.0772809 C111.709063,63.0772809 110.299138,61.6621365 110.299138,59.9158267 C110.299138,58.1704216 111.709063,56.7552773 113.448031,56.7552773 L113.448031,56.7552773 Z" id="Stroke-6" stroke="#FFFFFF"/>
                        <path d="M173.749319,56.7552773 L129.990672,56.7552773 C128.160001,56.7552773 126.675724,58.1704216 126.675724,59.9158267 C126.675724,61.6621365 128.160001,63.0772809 129.990672,63.0772809 L173.749319,63.0772809 C175.58094,63.0772809 177.065217,61.6621365 177.065217,59.9158267 C177.065217,58.1704216 175.58094,56.7552773 173.749319,56.7552773" id="Fill-7" stroke="#FFFFFF"/>
                        <path d="M269.691149,97.2161002 C272.802762,97.2161002 275.324728,99.7513976 275.324728,102.877352 L275.324728,530.301896 C275.324728,533.428795 272.802762,535.963148 269.691149,535.963148 L34.0497916,535.963148 C30.9381779,535.963148 28.4162122,533.428795 28.4162122,530.301896 L28.4162122,102.877352 C28.4162122,99.7513976 30.9381779,97.2161002 34.0497916,97.2161002 L269.691149,97.2161002 Z" id="Fill-8" fill="#FFFFFF"/>
                        <path d="M151.87047,35.2604651 C149.087726,35.2604651 146.831521,37.525022 146.831521,40.318068 C146.831521,43.1111139 149.087726,45.3756708 151.87047,45.3756708 C154.653215,45.3756708 156.909419,43.1111139 156.909419,40.318068 C156.909419,37.525022 154.653215,35.2604651 151.87047,35.2604651" id="Fill-9" stroke="#FFFFFF"/>
                        <path d="M151.87047,548.607156 C135.868721,548.607156 122.896512,561.6276 122.896512,577.688849 C122.896512,593.750098 135.868721,606.769589 151.87047,606.769589 C167.87222,606.769589 180.844429,593.750098 180.844429,577.688849 C180.844429,561.6276 167.87222,548.607156 151.87047,548.607156" id="Fill-10" stroke="#FFFFFF" stroke-width="3"/>
                    </g>
                </g>
            </g>
        </g>
    </g>
</svg>