<?xml version="1.0" encoding="UTF-8" standalone="no"?>
<svg width="172px" height="33px" viewBox="0 0 172 33" version="1.1" xmlns="http://www.w3.org/2000/svg" xmlns:xlink="http://www.w3.org/1999/xlink" xmlns:sketch="http://www.bohemiancoding.com/sketch/ns">
    <!-- Generator: Sketch 3.0.3 (7891) - http://www.bohemiancoding.com/sketch -->
    <title>logo_blk</title>
    <desc>Created with Sketch.</desc>
    <defs/>
    <g id="Page-1" stroke="none" stroke-width="1" fill="none" fill-rule="evenodd" sketch:type="MSPage">
        <g id="HEAD-3" sketch:type="MSLayerGroup" transform="translate(-34.000000, -37.000000)">
            <g id="header" transform="translate(34.000000, 16.000000)" sketch:type="MSShapeGroup">
                <g id="logo_blk" transform="translate(0.000000, 21.000000)">
                    <path d="M0.301227513,0.319916667 L0.301227513,24.5034167 L4.28179894,24.5034167 L4.28179894,4.35141667 L24.1882963,4.35141667 L24.1882963,24.5034167 L28.1697778,24.5034167 L28.1697778,0.319916667 L0.301227513,0.319916667 L0.301227513,0.319916667 Z M20.2077249,28.534 L24.1882963,28.534 L24.1882963,24.5034167 L20.2077249,24.5034167 L20.2077249,28.534 Z M4.28179894,28.534 L8.26328042,28.534 L8.26328042,24.5034167 L4.28179894,24.5034167 L4.28179894,28.534 Z M12.2447619,32.5655 L16.2253333,32.5655 L16.2253333,28.534 L12.2447619,28.534 L12.2447619,32.5655 Z M20.2077249,8.38108333 L8.26328042,8.38108333 L8.26328042,12.4125833 L12.2447619,12.4125833 L12.2447619,20.47375 L16.2253333,20.47375 L16.2253333,12.4125833 L20.2077249,12.4125833 L20.2077249,8.38108333 L20.2077249,8.38108333 Z" id="Fill-1" fill="#FFB31A"/>
                    <path d="M36.1318307,16.4431667 L40.1124021,16.4431667 L40.1124021,4.35141667 L48.074455,4.35141667 L48.074455,16.4431667 L52.0568466,16.4431667 L52.0568466,0.319916667 L36.1318307,0.319916667 L36.1318307,16.4431667 L36.1318307,16.4431667 Z M159.548656,4.35141667 L167.510709,4.35141667 L167.510709,0.320833333 L159.548656,0.320833333 L159.548656,4.35141667 Z M167.510709,4.35141667 L167.510709,8.38108333 L159.548656,8.38108333 L159.548656,4.35141667 L155.568085,4.35141667 L155.568085,16.4431667 L159.548656,16.4431667 L159.548656,12.4125833 L167.510709,12.4125833 L167.510709,16.4431667 L171.49128,16.4431667 L171.49128,4.35141667 L167.510709,4.35141667 L167.510709,4.35141667 Z M107.792127,6.36625 L99.8300741,6.36625 L99.8300741,0.319916667 L95.8485926,0.319916667 L95.8485926,16.4431667 L99.8300741,16.4431667 L99.8300741,10.3968333 L107.792127,10.3968333 L107.792127,16.4431667 L111.773608,16.4431667 L111.773608,0.319916667 L107.792127,0.319916667 L107.792127,6.36625 L107.792127,6.36625 Z M147.604212,12.4116667 L139.642159,12.4116667 L139.642159,0.319916667 L135.660677,0.319916667 L135.660677,16.4431667 L147.604212,16.4431667 L147.604212,20.47375 L151.585693,20.47375 L151.585693,0.319916667 L147.604212,0.319916667 L147.604212,12.4116667 L147.604212,12.4116667 Z M127.698624,4.35141667 L123.717143,4.35141667 L123.717143,8.38108333 L119.736571,8.38108333 L119.736571,0.319916667 L115.75509,0.319916667 L115.75509,16.4431667 L119.736571,16.4431667 L119.736571,12.4125833 L123.717143,12.4125833 L123.717143,8.38108333 L127.698624,8.38108333 L127.698624,16.4431667 L131.680106,16.4431667 L131.680106,0.319916667 L127.698624,0.319916667 L127.698624,4.35141667 L127.698624,4.35141667 Z M56.037418,8.38108333 L60.0188995,8.38108333 L60.0188995,4.35141667 L67.9809524,4.35141667 L67.9809524,16.4431667 L71.9615238,16.4431667 L71.9615238,0.319916667 L56.037418,0.319916667 L56.037418,8.38108333 L56.037418,8.38108333 Z M75.9439153,4.35141667 L81.9156825,4.35141667 L81.9156825,16.4431667 L85.896254,16.4431667 L85.896254,4.35141667 L91.8689312,4.35141667 L91.8689312,0.319916667 L75.9439153,0.319916667 L75.9439153,4.35141667 L75.9439153,4.35141667 Z M60.0188995,12.4125833 L64.000381,12.4125833 L64.000381,8.38108333 L60.0188995,8.38108333 L60.0188995,12.4125833 Z M56.037418,16.4431667 L60.0188995,16.4431667 L60.0188995,12.4135 L56.037418,12.4135 L56.037418,16.4431667 Z" id="Fill-2" fill="#1D1E1C"/>
                    <path d="M36.9948077,19.2364899 L36.9948077,20.4402517 L36.2165134,20.4402517 L36.2165134,21.1355279 L36.9948077,21.1355279 L36.9948077,23.8751238 C36.9948077,24.4666275 37.088203,24.9128495 37.3476344,25.1826582 C37.5655568,25.4317124 37.9080063,25.5666167 38.3334738,25.5666167 C38.6863006,25.5666167 38.9664865,25.5147305 39.1428999,25.4420897 L39.1013909,24.7571907 C38.987241,24.7883225 38.8108277,24.8194542 38.5721508,24.8194542 C38.0636652,24.8194542 37.8872518,24.4666275 37.8872518,23.8439921 L37.8872518,21.1355279 L39.1947862,21.1355279 L39.1947862,20.4402517 L37.8872518,20.4402517 L37.8872518,18.997813 L36.9948077,19.2364899 Z M43.8334201,25.4628442 C43.7711566,25.1203947 43.7504021,24.6949271 43.7504021,24.2590823 L43.7504021,22.3807988 C43.7504021,21.3742049 43.3768208,20.3261019 41.8409868,20.3261019 C41.2079741,20.3261019 40.6060932,20.5025153 40.1910029,20.7723239 L40.398548,21.3742049 C40.7513748,21.1459052 41.2391058,21.0006236 41.7060824,21.0006236 C42.7334309,21.0006236 42.8475807,21.7477861 42.8475807,22.1628764 L42.8475807,22.266649 C40.9070336,22.2562717 39.8277989,22.9204162 39.8277989,24.1345553 C39.8277989,24.8609633 40.3466617,25.576994 41.3636329,25.576994 C42.0796637,25.576994 42.619281,25.2241673 42.899467,24.8298315 L42.9305988,24.8298315 L43.0032396,25.4628442 L43.8334201,25.4628442 Z M42.8683352,23.7713513 C42.8683352,23.8647466 42.8475807,23.9685191 42.8164489,24.0619145 C42.6711673,24.487382 42.256077,24.9024723 41.6023098,24.9024723 C41.1353333,24.9024723 40.7409975,24.6222863 40.7409975,24.0307827 C40.7409975,23.0553205 41.8721185,22.8789071 42.8683352,22.8996617 L42.8683352,23.7713513 Z M44.6324689,20.4402517 L46.3343391,22.8996617 L44.5494509,25.4628442 L45.5560448,25.4628442 L46.2824528,24.3317231 C46.4692434,24.0307827 46.6456568,23.760974 46.8116929,23.4600335 L46.8324474,23.4600335 C47.0088608,23.760974 47.1748969,24.0411599 47.3720648,24.3317231 L48.1088501,25.4628442 L49.1465758,25.4628442 L47.3824421,22.8685299 L49.0946895,20.4402517 L48.1088501,20.4402517 L47.4031966,21.5091092 C47.2371605,21.7789179 47.0711244,22.0383493 46.9050882,22.3392898 L46.8739565,22.3392898 C46.7079204,22.0591038 46.5522615,21.7996724 46.3654709,21.5194865 L45.6494401,20.4402517 L44.6324689,20.4402517 Z M50.9418413,25.4628442 L50.9418413,20.4402517 L50.0286426,20.4402517 L50.0286426,25.4628442 L50.9418413,25.4628442 Z M50.485242,18.4581956 C50.1531697,18.4581956 49.9144928,18.7072498 49.9144928,19.0289447 C49.9144928,19.3402625 50.1427925,19.5893166 50.4644874,19.5893166 C50.8276914,19.5893166 51.0559911,19.3402625 51.0456138,19.0289447 C51.0456138,18.7072498 50.8276914,18.4581956 50.485242,18.4581956 Z M56.1927334,18.717627 L52.9654064,18.717627 L52.5295616,21.9553313 C52.7786158,21.9241995 53.0795562,21.8826905 53.4635148,21.8826905 C54.8125582,21.8826905 55.3936846,22.5053259 55.4040618,23.3770155 C55.4040618,24.2798369 54.6672766,24.8402087 53.8059642,24.8402087 C53.1937061,24.8402087 52.6437114,24.6326636 52.3635255,24.4666275 L52.1352258,25.1619037 C52.4569208,25.3694489 53.0795562,25.576994 53.8163415,25.576994 C55.2795348,25.576994 56.3276377,24.5911546 56.3276377,23.2732429 C56.3276377,22.4223078 55.8917929,21.8411814 55.3625528,21.540241 C54.9474625,21.2911868 54.4285997,21.177037 53.9097368,21.177037 C53.6606826,21.177037 53.515401,21.1977915 53.3597422,21.218546 L53.6191736,19.4855441 L56.1927334,19.4855441 L56.1927334,18.717627 Z M58.1747895,25.576994 C58.558748,25.576994 58.7974249,25.2968081 58.7974249,24.9232268 C58.7974249,24.5392683 58.5483708,24.2694596 58.1851668,24.2694596 C57.8219628,24.2694596 57.5625313,24.5392683 57.5625313,24.9232268 C57.5625313,25.2968081 57.8115855,25.576994 58.1747895,25.576994 Z M60.6757085,25.4628442 L60.7172175,24.6326636 L60.7483493,24.6326636 C61.1219305,25.2968081 61.7030569,25.576994 62.4294649,25.576994 C63.5502087,25.576994 64.6813297,24.6845499 64.6813297,22.8892844 C64.691707,21.3638276 63.8096401,20.3261019 62.5643693,20.3261019 C61.7549432,20.3261019 61.1738168,20.6893059 60.8521218,21.2496778 L60.8313673,21.2496778 L60.8313673,18.0949916 L59.928546,18.0949916 L59.928546,24.165687 C59.928546,24.6119091 59.9077914,25.1203947 59.8870369,25.4628442 L60.6757085,25.4628442 Z M60.8313673,22.5468349 C60.8313673,22.4015533 60.8624991,22.2770262 60.8832536,22.1732537 C61.0700442,21.4779774 61.6511706,21.0525099 62.2738061,21.0525099 C63.2492682,21.0525099 63.7681311,21.9138222 63.7681311,22.9204162 C63.7681311,24.0722917 63.197382,24.850586 62.2426743,24.850586 C61.5785298,24.850586 61.0492897,24.4147412 60.8728764,23.7817285 C60.8521218,23.6779559 60.8313673,23.5638061 60.8313673,23.4496563 L60.8313673,22.5468349 Z M65.0128831,20.4402517 L66.8704121,25.0685084 C66.9119211,25.1826582 66.9326757,25.255299 66.9326757,25.3071853 C66.9326757,25.3590716 66.9015439,25.4317124 66.8600349,25.5251077 C66.6524897,25.9920843 66.341172,26.344911 66.0921178,26.5420789 C65.8223091,26.7703786 65.5213687,26.9156602 65.293069,26.988301 L65.5213687,27.756218 C65.7496683,27.714709 66.1958904,27.5590501 66.6421125,27.1647143 C67.2647479,26.625097 67.7109699,25.7430301 68.3647371,24.0204054 L69.7345351,20.4402517 L68.7694502,20.4402517 L67.7732335,23.3873927 C67.6487064,23.7505967 67.5449338,24.1345553 67.4515385,24.4354957 L67.430784,24.4354957 C67.3477659,24.1345553 67.2232389,23.7402195 67.109089,23.4081473 L66.0090998,20.4402517 L65.0128831,20.4402517 Z" id="taxi5.by" fill="#FFB31A"/>
                </g>
            </g>
        </g>
    </g>
</svg>