<?xml version="1.0" encoding="UTF-8" standalone="no"?>
<svg width="170px" height="33px" viewBox="0 0 170 33" version="1.1" xmlns="http://www.w3.org/2000/svg" xmlns:xlink="http://www.w3.org/1999/xlink" xmlns:sketch="http://www.bohemiancoding.com/sketch/ns">
    <!-- Generator: Sketch 3.0.3 (7891) - http://www.bohemiancoding.com/sketch -->
    <title>logo</title>
    <desc>Created with Sketch.</desc>
    <defs/>
    <g id="Page-1" stroke="none" stroke-width="1" fill="none" fill-rule="evenodd" sketch:type="MSPage">
        <g id="Index" sketch:type="MSArtboardGroup" transform="translate(-34.000000, -52.000000)">
            <g id="HEAD-2" sketch:type="MSLayerGroup" transform="translate(1.000000, -1.000000)">
                <g id="header" transform="translate(33.000000, 34.000000)" sketch:type="MSShapeGroup">
                    <g id="logo" transform="translate(0.000000, 20.000000)">
                        <path d="M0.37957672,-0.34375 L0.37957672,23.8388333 L4.31386243,23.8388333 L4.31386243,3.68591667 L23.9888889,3.68591667 L23.9888889,23.8388333 L27.9240741,23.8388333 L27.9240741,-0.34375 L0.37957672,-0.34375 L0.37957672,-0.34375 Z M20.0546032,27.8703333 L23.9888889,27.8703333 L23.9888889,23.8388333 L20.0546032,23.8388333 L20.0546032,27.8703333 Z M4.31386243,27.8703333 L8.24904762,27.8703333 L8.24904762,23.8388333 L4.31386243,23.8388333 L4.31386243,27.8703333 Z M12.1842328,31.9009167 L16.1185185,31.9009167 L16.1185185,27.8703333 L12.1842328,27.8703333 L12.1842328,31.9009167 Z M20.0546032,7.7165 L8.24904762,7.7165 L8.24904762,11.748 L12.1842328,11.748 L12.1842328,19.80825 L16.1185185,19.80825 L16.1185185,11.748 L20.0546032,11.748 L20.0546032,7.7165 L20.0546032,7.7165 Z" id="Fill-1" fill="#FFB31A"/>
                        <path d="M35.793545,15.7785833 L39.7278307,15.7785833 L39.7278307,3.68591667 L47.5973016,3.68591667 L47.5973016,15.7785833 L51.5333862,15.7785833 L51.5333862,-0.34375 L35.793545,-0.34375 L35.793545,15.7785833 L35.793545,15.7785833 Z M157.775291,3.68591667 L165.644762,3.68591667 L165.644762,-0.344666667 L157.775291,-0.344666667 L157.775291,3.68591667 Z M165.644762,3.68591667 L165.644762,7.7165 L157.775291,7.7165 L157.775291,3.68591667 L153.841005,3.68591667 L153.841005,15.7785833 L157.775291,15.7785833 L157.775291,11.748 L165.644762,11.748 L165.644762,15.7785833 L169.579048,15.7785833 L169.579048,3.68591667 L165.644762,3.68591667 L165.644762,3.68591667 Z M106.620582,5.70258333 L98.7511111,5.70258333 L98.7511111,-0.34375 L94.8159259,-0.34375 L94.8159259,15.7785833 L98.7511111,15.7785833 L98.7511111,9.73225 L106.620582,9.73225 L106.620582,15.7785833 L110.555767,15.7785833 L110.555767,-0.34375 L106.620582,-0.34375 L106.620582,5.70258333 L106.620582,5.70258333 Z M145.969735,11.748 L138.100265,11.748 L138.100265,-0.34375 L134.165079,-0.34375 L134.165079,15.7785833 L145.969735,15.7785833 L145.969735,19.80825 L149.904921,19.80825 L149.904921,-0.34375 L145.969735,-0.34375 L145.969735,11.748 L145.969735,11.748 Z M126.295608,3.68591667 L122.360423,3.68591667 L122.360423,7.7165 L118.426138,7.7165 L118.426138,-0.34375 L114.490952,-0.34375 L114.490952,15.7785833 L118.426138,15.7785833 L118.426138,11.748 L122.360423,11.748 L122.360423,7.7165 L126.295608,7.7165 L126.295608,15.7785833 L130.230794,15.7785833 L130.230794,-0.34375 L126.295608,-0.34375 L126.295608,3.68591667 L126.295608,3.68591667 Z M55.467672,7.7165 L59.4028571,7.7165 L59.4028571,3.68591667 L67.272328,3.68591667 L67.272328,15.7785833 L71.2066138,15.7785833 L71.2066138,-0.34375 L55.467672,-0.34375 L55.467672,7.7165 L55.467672,7.7165 Z M75.1426984,3.68591667 L81.044127,3.68591667 L81.044127,15.7785833 L84.9793122,15.7785833 L84.9793122,3.68591667 L90.8825397,3.68591667 L90.8825397,-0.34375 L75.1426984,-0.34375 L75.1426984,3.68591667 L75.1426984,3.68591667 Z M59.4028571,11.748 L63.3380423,11.748 L63.3380423,7.7165 L59.4028571,7.7165 L59.4028571,11.748 Z M55.467672,15.7785833 L59.4028571,15.7785833 L59.4028571,11.7489167 L55.467672,11.7489167 L55.467672,15.7785833 Z" id="Fill-2" fill="#FFFFFF"/>
                        <path d="M36.658069,18.5722732 L36.658069,19.7760351 L35.8797748,19.7760351 L35.8797748,20.4713113 L36.658069,20.4713113 L36.658069,23.2109072 C36.658069,23.8024108 36.7514644,24.2486329 37.0108958,24.5184416 C37.2288182,24.7674957 37.5712677,24.9024001 37.9967352,24.9024001 C38.349562,24.9024001 38.6297479,24.8505138 38.8061613,24.777873 L38.7646522,24.092974 C38.6505024,24.1241058 38.474089,24.1552376 38.2354121,24.1552376 C37.7269265,24.1552376 37.5505132,23.8024108 37.5505132,23.1797754 L37.5505132,20.4713113 L38.8580476,20.4713113 L38.8580476,19.7760351 L37.5505132,19.7760351 L37.5505132,18.3335963 L36.658069,18.5722732 Z M43.4966815,24.7986275 C43.434418,24.456178 43.4136634,24.0307105 43.4136634,23.5948657 L43.4136634,21.7165821 C43.4136634,20.7099882 43.0400822,19.6618852 41.5042481,19.6618852 C40.8712354,19.6618852 40.2693545,19.8382986 39.8542642,20.1081073 L40.0618094,20.7099882 C40.4146361,20.4816885 40.9023672,20.3364069 41.3693438,20.3364069 C42.3966922,20.3364069 42.5108421,21.0835695 42.5108421,21.4986597 L42.5108421,21.6024323 C40.570295,21.5920551 39.4910602,22.2561995 39.4910602,23.4703386 C39.4910602,24.1967466 40.0099231,24.9127773 41.0268943,24.9127773 C41.742925,24.9127773 42.2825424,24.5599506 42.5627284,24.1656148 L42.5938601,24.1656148 L42.6665009,24.7986275 L43.4966815,24.7986275 Z M42.5315966,23.1071346 C42.5315966,23.2005299 42.5108421,23.3043025 42.4797103,23.3976978 C42.3344287,23.8231653 41.9193384,24.2382556 41.2655712,24.2382556 C40.7985946,24.2382556 40.4042589,23.9580697 40.4042589,23.366566 C40.4042589,22.3911039 41.5353799,22.2146905 42.5315966,22.235445 L42.5315966,23.1071346 Z M44.2957303,19.7760351 L45.9976005,22.235445 L44.2127122,24.7986275 L45.2193062,24.7986275 L45.9457142,23.6675065 C46.1325048,23.366566 46.3089182,23.0967573 46.4749543,22.7958169 L46.4957088,22.7958169 C46.6721222,23.0967573 46.8381583,23.3769433 47.0353262,23.6675065 L47.7721114,24.7986275 L48.8098372,24.7986275 L47.0457034,22.2043132 L48.7579509,19.7760351 L47.7721114,19.7760351 L47.066458,20.8448925 C46.9004218,21.1147012 46.7343857,21.3741327 46.5683496,21.6750731 L46.5372178,21.6750731 C46.3711817,21.3948872 46.2155229,21.1354557 46.0287322,20.8552698 L45.3127015,19.7760351 L44.2957303,19.7760351 Z M50.6051026,24.7986275 L50.6051026,19.7760351 L49.691904,19.7760351 L49.691904,24.7986275 L50.6051026,24.7986275 Z M50.1485033,17.7939789 C49.8164311,17.7939789 49.5777542,18.0430331 49.5777542,18.3647281 C49.5777542,18.6760458 49.8060538,18.9251 50.1277488,18.9251 C50.4909528,18.9251 50.7192525,18.6760458 50.7088752,18.3647281 C50.7088752,18.0430331 50.4909528,17.7939789 50.1485033,17.7939789 Z M55.8559948,18.0534104 L52.6286678,18.0534104 L52.192823,21.2911146 C52.4418772,21.2599828 52.7428176,21.2184738 53.1267761,21.2184738 C54.4758196,21.2184738 55.056946,21.8411092 55.0673232,22.7127988 C55.0673232,23.6156202 54.330538,24.1759921 53.4692256,24.1759921 C52.8569674,24.1759921 52.3069728,23.9684469 52.0267869,23.8024108 L51.7984872,24.4976871 C52.1201822,24.7052322 52.7428176,24.9127773 53.4796029,24.9127773 C54.9427961,24.9127773 55.9908991,23.9269379 55.9908991,22.6090263 C55.9908991,21.7580912 55.5550543,21.1769648 55.0258142,20.8760243 C54.6107239,20.6269701 54.091861,20.5128203 53.5729982,20.5128203 C53.323944,20.5128203 53.1786624,20.5335748 53.0230036,20.5543293 L53.282435,18.8213274 L55.8559948,18.8213274 L55.8559948,18.0534104 Z M57.8380509,24.9127773 C58.2220094,24.9127773 58.4606863,24.6325914 58.4606863,24.2590101 C58.4606863,23.8750516 58.2116321,23.6052429 57.8484281,23.6052429 C57.4852241,23.6052429 57.2257927,23.8750516 57.2257927,24.2590101 C57.2257927,24.6325914 57.4748469,24.9127773 57.8380509,24.9127773 Z M60.3389698,24.7986275 L60.3804789,23.9684469 L60.4116106,23.9684469 C60.7851919,24.6325914 61.3663183,24.9127773 62.0927263,24.9127773 C63.2134701,24.9127773 64.3445911,24.0203332 64.3445911,22.2250677 C64.3549684,20.6996109 63.4729015,19.6618852 62.2276306,19.6618852 C61.4182046,19.6618852 60.8370782,20.0250892 60.5153832,20.5854611 L60.4946287,20.5854611 L60.4946287,17.4307749 L59.5918073,17.4307749 L59.5918073,23.5014704 C59.5918073,23.9476924 59.5710528,24.456178 59.5502983,24.7986275 L60.3389698,24.7986275 Z M60.4946287,21.8826183 C60.4946287,21.7373367 60.5257605,21.6128096 60.546515,21.509037 C60.7333056,20.8137608 61.314432,20.3882932 61.9370674,20.3882932 C62.9125296,20.3882932 63.4313925,21.2496056 63.4313925,22.2561995 C63.4313925,23.4080751 62.8606433,24.1863693 61.9059357,24.1863693 C61.2417912,24.1863693 60.7125511,23.7505245 60.5361377,23.1175119 C60.5153832,23.0137393 60.4946287,22.8995895 60.4946287,22.7854396 L60.4946287,21.8826183 Z M64.6761445,19.7760351 L66.5336735,24.4042917 C66.5751825,24.5184416 66.595937,24.5910824 66.595937,24.6429687 C66.595937,24.6948549 66.5648053,24.7674957 66.5232962,24.8608911 C66.3157511,25.3278676 66.0044334,25.6806944 65.7553792,25.8778623 C65.4855705,26.1061619 65.1846301,26.2514435 64.9563304,26.3240843 L65.1846301,27.0920013 C65.4129297,27.0504923 65.8591518,26.8948335 66.3053738,26.5004977 C66.9280093,25.9608803 67.3742313,25.0788135 68.0279985,23.3561888 L69.3977965,19.7760351 L68.4327115,19.7760351 L67.4364949,22.7231761 C67.3119678,23.0863801 67.2081952,23.4703386 67.1147999,23.7712791 L67.0940454,23.7712791 C67.0110273,23.4703386 66.8865002,23.0760028 66.7723504,22.7439306 L65.6723611,19.7760351 L64.6761445,19.7760351 Z" id="taxi5.by" fill="#FFB31A"/>
                    </g>
                </g>
            </g>
        </g>
    </g>
</svg>